<?xml version="1.0" encoding="UTF-8" standalone="no"?>
<!DOCTYPE svg PUBLIC "-//W3C//DTD SVG 1.1//EN" "http://www.w3.org/Graphics/SVG/1.1/DTD/svg11.dtd">
<svg width="100%" height="100%" viewBox="0 0 1080 1080" version="1.1" xmlns="http://www.w3.org/2000/svg" xmlns:xlink="http://www.w3.org/1999/xlink" xml:space="preserve" xmlns:serif="http://www.serif.com/" style="fill-rule:evenodd;clip-rule:evenodd;stroke-linejoin:round;stroke-miterlimit:2;">
    <g>
        <path d="M152.191,466.224L152.191,311.296L211.446,311.296L265.95,383.343C267.622,385.377 269.382,388.252 271.229,391.968C273.165,395.684 275.188,400.172 277.3,405.431C276.772,402.696 276.376,399.681 276.112,396.386C275.848,393.09 275.716,389.093 275.716,384.395L275.716,311.296L335.236,311.296L335.236,466.224L275.716,466.224L221.212,394.703C219.54,392.599 217.693,389.619 215.669,385.763C213.734,381.906 211.754,377.488 209.731,372.51C210.346,375.245 210.786,378.12 211.05,381.135C211.314,384.08 211.446,388.252 211.446,393.651L211.446,466.224L152.191,466.224Z" style="fill:url(#_Linear1);fill-rule:nonzero;"/>
        <path d="M366.782,466.224L366.782,311.296L522.245,311.296L522.245,348.424L429.205,348.424L429.205,369.039L507.86,369.039L507.86,404.589L429.205,404.589L429.205,428.57L526.072,428.57L526.072,466.224L366.782,466.224Z" style="fill:url(#_Linear2);fill-rule:nonzero;"/>
        <path d="M610.275,430.043L639.177,430.043C648.767,430.043 655.585,428.921 659.633,426.677C663.68,424.433 665.703,420.752 665.703,415.633C665.703,410.515 663.636,406.868 659.501,404.695C655.366,402.521 648.415,401.434 638.649,401.434L610.275,401.434L610.275,430.043ZM610.275,373.141L636.01,373.141C644.632,373.141 650.703,372.124 654.222,370.091C657.741,368.057 659.501,364.622 659.501,359.783C659.501,354.665 657.609,351.159 653.826,349.266C650.043,347.372 641.289,346.426 627.564,346.426L610.275,346.426L610.275,373.141ZM549.7,466.224L549.7,311.296L629.411,311.296C646.567,311.296 659.061,311.647 666.891,312.348C674.721,313.049 681.452,314.206 687.083,315.819C696.937,318.764 704.459,323.357 709.65,329.597C714.929,335.838 717.568,343.411 717.568,352.316C717.568,359.328 715.589,365.463 711.629,370.722C707.758,375.911 701.908,380.188 694.077,383.554C704.371,386.499 711.981,390.916 716.908,396.806C721.835,402.696 724.299,410.339 724.299,419.735C724.299,428.921 721.879,436.914 717.04,443.716C712.289,450.447 705.339,455.636 696.189,459.282C690.03,461.807 682.992,463.595 675.073,464.646C667.155,465.698 654.046,466.224 635.746,466.224L549.7,466.224Z" style="fill:url(#_Linear3);fill-rule:nonzero;"/>
        <path d="M803.751,388.918C803.751,403.573 806.83,414.336 812.989,421.208C819.148,428.079 828.782,431.515 841.891,431.515C854.912,431.515 864.458,428.114 870.529,421.313C876.599,414.441 879.635,403.643 879.635,388.918C879.635,374.123 876.599,363.324 870.529,356.523C864.458,349.651 854.912,346.215 841.891,346.215C828.782,346.215 819.148,349.651 812.989,356.523C806.83,363.395 803.751,374.193 803.751,388.918ZM740.801,388.918C740.801,363.675 749.819,343.761 767.855,329.176C785.979,314.592 810.658,307.299 841.891,307.299C873.036,307.299 897.627,314.592 915.663,329.176C933.699,343.761 942.717,363.675 942.717,388.918C942.717,414.091 933.699,434.004 915.663,448.659C897.627,463.244 873.036,470.536 841.891,470.536C810.658,470.536 785.979,463.244 767.855,448.659C749.819,434.004 740.801,414.091 740.801,388.918Z" style="fill:url(#_Linear4);fill-rule:nonzero;"/>
        <path d="M116.356,535.241L45.545,606.052L45.545,205.514L1026.17,205.514L1026.17,604.501L151.298,604.501L151.298,498.438L955.361,498.438L955.361,276.325L116.356,276.325L116.356,535.241Z" style="fill:url(#_Linear5);"/>
        <g transform="matrix(66.6577,0,0,59.5271,-35518.5,-25482.9)">
            <g transform="matrix(1.19273,0,0,1.19273,537.416,437.724)">
                <path d="M0.074,-0.504C0.074,-0.553 0.092,-0.596 0.129,-0.633C0.165,-0.669 0.221,-0.688 0.297,-0.688C0.378,-0.688 0.439,-0.667 0.48,-0.625C0.517,-0.589 0.535,-0.546 0.535,-0.496L0.445,-0.496C0.445,-0.527 0.435,-0.553 0.414,-0.574C0.391,-0.598 0.354,-0.609 0.305,-0.609C0.25,-0.609 0.212,-0.599 0.191,-0.578C0.173,-0.56 0.164,-0.539 0.164,-0.516C0.164,-0.492 0.169,-0.475 0.18,-0.465C0.193,-0.452 0.216,-0.439 0.25,-0.426C0.31,-0.4 0.378,-0.37 0.453,-0.336C0.474,-0.328 0.493,-0.315 0.512,-0.297C0.54,-0.268 0.555,-0.234 0.555,-0.195C0.555,-0.143 0.536,-0.099 0.5,-0.063C0.461,-0.023 0.397,-0.004 0.309,-0.004C0.223,-0.004 0.156,-0.027 0.109,-0.074C0.076,-0.108 0.059,-0.158 0.059,-0.223L0.148,-0.223C0.148,-0.176 0.159,-0.142 0.18,-0.121C0.208,-0.092 0.253,-0.078 0.313,-0.078C0.367,-0.078 0.408,-0.091 0.434,-0.117C0.454,-0.138 0.465,-0.159 0.465,-0.18C0.465,-0.203 0.457,-0.223 0.441,-0.238C0.428,-0.251 0.408,-0.264 0.379,-0.277C0.353,-0.29 0.319,-0.306 0.277,-0.324C0.23,-0.345 0.193,-0.362 0.164,-0.375C0.143,-0.383 0.125,-0.395 0.109,-0.41C0.086,-0.434 0.074,-0.465 0.074,-0.504Z" style="fill:white;fill-rule:nonzero;"/>
            </g>
            <g transform="matrix(1.19273,0,0,1.19273,538.181,437.724)">
                <path d="M0.047,-0.23C0.047,-0.301 0.069,-0.358 0.113,-0.402C0.15,-0.439 0.197,-0.457 0.254,-0.457C0.309,-0.457 0.355,-0.438 0.395,-0.398C0.431,-0.362 0.449,-0.306 0.449,-0.23L0.133,-0.23C0.133,-0.176 0.146,-0.135 0.172,-0.109C0.195,-0.086 0.225,-0.074 0.262,-0.074C0.298,-0.074 0.324,-0.082 0.34,-0.098C0.358,-0.116 0.367,-0.137 0.367,-0.16L0.453,-0.16C0.443,-0.113 0.426,-0.078 0.402,-0.055C0.368,-0.021 0.322,-0.004 0.262,-0.004C0.199,-0.004 0.148,-0.023 0.109,-0.063C0.068,-0.104 0.047,-0.16 0.047,-0.23ZM0.25,-0.391C0.219,-0.391 0.193,-0.38 0.172,-0.359C0.154,-0.341 0.142,-0.319 0.137,-0.293L0.359,-0.293C0.359,-0.319 0.349,-0.342 0.328,-0.363C0.31,-0.382 0.284,-0.391 0.25,-0.391Z" style="fill:white;fill-rule:nonzero;"/>
            </g>
            <g transform="matrix(1.19273,0,0,1.19273,538.825,437.724)">
                <path d="M0.176,-0.395C0.217,-0.436 0.273,-0.457 0.344,-0.457L0.344,-0.371C0.333,-0.374 0.319,-0.375 0.301,-0.375C0.262,-0.375 0.225,-0.358 0.191,-0.324C0.163,-0.296 0.143,-0.266 0.133,-0.234L0.133,-0.012L0.055,-0.012L0.055,-0.449L0.133,-0.449L0.133,-0.34C0.146,-0.361 0.16,-0.379 0.176,-0.395Z" style="fill:white;fill-rule:nonzero;"/>
            </g>
            <g transform="matrix(1.19273,0,0,1.19273,539.288,437.724)">
                <path d="M0.012,-0.449L0.098,-0.449L0.238,-0.102L0.379,-0.449L0.465,-0.449L0.277,-0.004L0.199,-0.004L0.012,-0.449Z" style="fill:white;fill-rule:nonzero;"/>
            </g>
            <g transform="matrix(1.19273,0,0,1.19273,539.904,437.724)">
                <path d="M0.066,-0.676L0.145,-0.676L0.145,-0.574L0.066,-0.574L0.066,-0.676ZM0.066,-0.449L0.145,-0.449L0.145,-0.012L0.066,-0.012L0.066,-0.449Z" style="fill:white;fill-rule:nonzero;"/>
            </g>
            <g transform="matrix(1.19273,0,0,1.19273,540.203,437.724)">
                <path d="M0.047,-0.227C0.047,-0.297 0.068,-0.353 0.109,-0.395C0.148,-0.434 0.197,-0.453 0.254,-0.453C0.316,-0.453 0.363,-0.438 0.395,-0.406C0.423,-0.378 0.44,-0.342 0.445,-0.301L0.359,-0.301C0.357,-0.322 0.346,-0.341 0.328,-0.359C0.313,-0.375 0.289,-0.383 0.258,-0.383C0.227,-0.383 0.201,-0.372 0.18,-0.352C0.148,-0.32 0.133,-0.277 0.133,-0.223C0.133,-0.171 0.147,-0.13 0.176,-0.102C0.197,-0.081 0.223,-0.07 0.254,-0.07C0.29,-0.07 0.319,-0.081 0.34,-0.102C0.361,-0.122 0.371,-0.15 0.371,-0.184L0.457,-0.184C0.454,-0.129 0.436,-0.085 0.402,-0.051C0.368,-0.017 0.319,-0 0.254,-0C0.199,-0 0.154,-0.018 0.117,-0.055C0.07,-0.102 0.047,-0.159 0.047,-0.227Z" style="fill:white;fill-rule:nonzero;"/>
            </g>
            <g transform="matrix(1.19273,0,0,1.19273,540.847,437.724)">
                <path d="M0.066,-0.676L0.145,-0.676L0.145,-0.574L0.066,-0.574L0.066,-0.676ZM0.066,-0.449L0.145,-0.449L0.145,-0.012L0.066,-0.012L0.066,-0.449Z" style="fill:white;fill-rule:nonzero;"/>
            </g>
            <g transform="matrix(1.19273,0,0,1.19273,541.146,437.724)">
                <path d="M0.066,-0.676L0.145,-0.676L0.145,-0.574L0.066,-0.574L0.066,-0.676ZM0.066,-0.449L0.145,-0.449L0.145,-0.012L0.066,-0.012L0.066,-0.449Z" style="fill:white;fill-rule:nonzero;"/>
            </g>
            <g transform="matrix(1.19273,0,0,1.19273,541.857,437.724)">
                <path d="M0.044,-0.237L0.138,-0.237C0.139,-0.185 0.156,-0.143 0.19,-0.112C0.224,-0.081 0.269,-0.066 0.325,-0.066C0.381,-0.066 0.425,-0.078 0.457,-0.101C0.489,-0.125 0.505,-0.156 0.505,-0.197C0.505,-0.252 0.445,-0.294 0.324,-0.322C0.317,-0.324 0.312,-0.325 0.308,-0.326C0.21,-0.349 0.145,-0.375 0.114,-0.403C0.083,-0.432 0.067,-0.472 0.067,-0.525C0.067,-0.589 0.09,-0.64 0.137,-0.679C0.184,-0.718 0.246,-0.738 0.324,-0.738C0.404,-0.738 0.466,-0.717 0.512,-0.676C0.557,-0.636 0.58,-0.58 0.581,-0.508L0.488,-0.508C0.485,-0.556 0.468,-0.593 0.438,-0.619C0.409,-0.644 0.369,-0.657 0.318,-0.657C0.27,-0.657 0.232,-0.647 0.203,-0.625C0.174,-0.605 0.16,-0.577 0.16,-0.542C0.16,-0.486 0.219,-0.445 0.338,-0.417C0.355,-0.413 0.389,-0.405 0.389,-0.405C0.466,-0.387 0.518,-0.367 0.543,-0.345C0.562,-0.329 0.577,-0.309 0.587,-0.286C0.597,-0.263 0.602,-0.237 0.602,-0.208C0.602,-0.139 0.577,-0.083 0.527,-0.042C0.478,-0.001 0.411,0.019 0.326,0.019C0.239,0.019 0.171,-0.003 0.122,-0.047C0.074,-0.091 0.048,-0.154 0.044,-0.237Z" style="fill:white;fill-rule:nonzero;"/>
            </g>
            <g transform="matrix(1.19273,0,0,1.19273,542.697,437.724)">
                <path d="M0.044,-0.237L0.138,-0.237C0.139,-0.185 0.156,-0.143 0.19,-0.112C0.224,-0.081 0.269,-0.066 0.325,-0.066C0.381,-0.066 0.425,-0.078 0.457,-0.101C0.489,-0.125 0.505,-0.156 0.505,-0.197C0.505,-0.252 0.445,-0.294 0.324,-0.322C0.317,-0.324 0.312,-0.325 0.308,-0.326C0.21,-0.349 0.145,-0.375 0.114,-0.403C0.083,-0.432 0.067,-0.472 0.067,-0.525C0.067,-0.589 0.09,-0.64 0.137,-0.679C0.184,-0.718 0.246,-0.738 0.324,-0.738C0.404,-0.738 0.466,-0.717 0.512,-0.676C0.557,-0.636 0.58,-0.58 0.581,-0.508L0.488,-0.508C0.485,-0.556 0.468,-0.593 0.438,-0.619C0.409,-0.644 0.369,-0.657 0.318,-0.657C0.27,-0.657 0.232,-0.647 0.203,-0.625C0.174,-0.605 0.16,-0.577 0.16,-0.542C0.16,-0.486 0.219,-0.445 0.338,-0.417C0.355,-0.413 0.389,-0.405 0.389,-0.405C0.466,-0.387 0.518,-0.367 0.543,-0.345C0.562,-0.329 0.577,-0.309 0.587,-0.286C0.597,-0.263 0.602,-0.237 0.602,-0.208C0.602,-0.139 0.577,-0.083 0.527,-0.042C0.478,-0.001 0.411,0.019 0.326,0.019C0.239,0.019 0.171,-0.003 0.122,-0.047C0.074,-0.091 0.048,-0.154 0.044,-0.237Z" style="fill:white;fill-rule:nonzero;"/>
            </g>
            <g transform="matrix(1.19273,0,0,1.19273,543.515,437.724)">
                <path d="M0.167,-0.613L0.167,-0L0.077,-0L0.077,-0.719L0.217,-0.719L0.395,-0.169C0.4,-0.153 0.404,-0.141 0.406,-0.132C0.409,-0.124 0.411,-0.116 0.412,-0.11C0.415,-0.122 0.417,-0.133 0.42,-0.142C0.423,-0.152 0.425,-0.16 0.428,-0.169L0.613,-0.719L0.753,-0.719L0.753,-0L0.658,-0L0.658,-0.613C0.656,-0.602 0.653,-0.592 0.65,-0.581C0.647,-0.571 0.644,-0.56 0.641,-0.55L0.456,-0L0.364,-0L0.183,-0.55C0.18,-0.559 0.177,-0.569 0.174,-0.579C0.172,-0.59 0.169,-0.601 0.167,-0.613Z" style="fill:white;fill-rule:nonzero;"/>
            </g>
        </g>
    </g>
    <defs>
        <linearGradient id="_Linear1" x1="0" y1="0" x2="1" y2="0" gradientUnits="userSpaceOnUse" gradientTransform="matrix(637.307,0,0,146.409,152.851,391.337)"><stop offset="0" style="stop-color:rgb(0,255,255);stop-opacity:1"/><stop offset="1" style="stop-color:rgb(0,182,255);stop-opacity:1"/></linearGradient>
        <linearGradient id="_Linear2" x1="0" y1="0" x2="1" y2="0" gradientUnits="userSpaceOnUse" gradientTransform="matrix(637.307,0,0,146.409,152.851,391.337)"><stop offset="0" style="stop-color:rgb(0,255,255);stop-opacity:1"/><stop offset="1" style="stop-color:rgb(0,182,255);stop-opacity:1"/></linearGradient>
        <linearGradient id="_Linear3" x1="0" y1="0" x2="1" y2="0" gradientUnits="userSpaceOnUse" gradientTransform="matrix(637.307,0,0,146.409,152.851,391.337)"><stop offset="0" style="stop-color:rgb(0,255,255);stop-opacity:1"/><stop offset="1" style="stop-color:rgb(0,182,255);stop-opacity:1"/></linearGradient>
        <linearGradient id="_Linear4" x1="0" y1="0" x2="1" y2="0" gradientUnits="userSpaceOnUse" gradientTransform="matrix(637.307,0,0,146.409,152.851,391.337)"><stop offset="0" style="stop-color:rgb(0,255,255);stop-opacity:1"/><stop offset="1" style="stop-color:rgb(0,182,255);stop-opacity:1"/></linearGradient>
        <linearGradient id="_Linear5" x1="0" y1="0" x2="1" y2="0" gradientUnits="userSpaceOnUse" gradientTransform="matrix(916.526,0,0,916.526,9.67376,680.568)"><stop offset="0" style="stop-color:rgb(0,255,255);stop-opacity:1"/><stop offset="1" style="stop-color:rgb(0,182,255);stop-opacity:1"/></linearGradient>
    </defs>
</svg>
